name C:\Users\u0101727\Documents\MyRepositories\upper-imu-dc\Results\main_tracking\Case_45\kinematics_filtered.mot
datacolumns 10
datarows 47
range 2.00000000 2.27600000
endheader 
time	clav_prot	clav_elev	scapula_abduction	scapula_elevation	scapula_upward_rot	scapula_winging	plane_elv	shoulder_elv	axial_rot	
          2.00000000	        -24.86979750	          4.20574867	          9.53178174	         -4.53331631	         51.68541420	         -4.96914980	         61.32146883	         71.12406189	        -20.94931890	
          2.00600000	        -24.95425723	          4.24460494	          9.57672583	         -4.52676443	         51.93107230	         -5.00678251	         61.19161229	         71.31174281	        -20.84524851	
          2.01200000	        -25.04066784	          4.28126658	          9.61880757	         -4.52153391	         52.17663881	         -5.04365614	         61.06106786	         71.49909549	        -20.73652087	
          2.01800000	        -25.12886675	          4.31583971	          9.65810999	         -4.51752742	         52.42190444	         -5.07978750	         60.92997890	         71.68610239	        -20.62348897	
          2.02400000	        -25.21868962	          4.34843637	          9.69471965	         -4.51464467	         52.66666241	         -5.11519495	         60.79847837	         71.87274227	        -20.50654455	
          2.03000000	        -25.30997240	          4.37917330	          9.72872578	         -4.51278354	         52.91071132	         -5.14989833	         60.66668878	         72.05899016	        -20.38611264	
          2.03600000	        -25.40255323	          4.40817067	          9.76021944	         -4.51184117	         53.15385781	         -5.18391894	         60.53472223	         72.24481742	        -20.26264529	
          2.04200000	        -25.49627420	          4.43555090	          9.78929279	         -4.51171501	         53.39591900	         -5.21727950	         60.40268061	         72.43019205	        -20.13661477	
          2.04800000	        -25.59098297	          4.46143748	          9.81603837	         -4.51230375	         53.63672460	         -5.25000405	         60.27065577	         72.61507902	        -20.00850614	
          2.05400000	        -25.68653408	          4.48595389	          9.84054845	         -4.51350820	         53.87611875	         -5.28211787	         60.13872988	         72.79944091	        -19.87880943	
          2.06000000	        -25.78279025	          4.50922263	          9.86291437	         -4.51523203	         54.11396146	         -5.31364737	         60.00697582	         72.98323855	        -19.74801160	
          2.06600000	        -25.87962341	          4.53136439	          9.88322587	         -4.51738234	         54.35012976	         -5.34462004	         59.87545761	         73.16643188	        -19.61658837	
          2.07200000	        -25.97691558	          4.55249730	          9.90157041	         -4.51987018	         54.58451852	         -5.37506431	         59.74423088	         73.34898076	        -19.48499618	
          2.07800000	        -26.07455958	          4.57273648	          9.91803244	         -4.52261082	         54.81704090	         -5.40500951	         59.61334339	         73.53084596	        -19.35366442	
          2.08400000	        -26.17245960	          4.59219359	          9.93269275	         -4.52552396	         55.04762861	         -5.43448580	         59.48283548	         73.71199005	        -19.22298825	
          2.09000000	        -26.27053157	          4.61097671	          9.94562777	         -4.52853374	         55.27623176	         -5.46352418	         59.35274048	         73.89237829	        -19.09332206	
          2.09600000	        -26.36870340	          4.62919029	          9.95690893	         -4.53156863	         55.50281860	         -5.49215643	         59.22308506	         74.07197945	        -18.96497392	
          2.10200000	        -26.46691498	          4.64693534	          9.96660212	         -4.53456120	         55.72737488	         -5.52041515	         59.09388951	         74.25076655	        -18.83820113	
          2.10800000	        -26.56511808	          4.66430969	          9.97476727	         -4.53744773	         55.94990316	         -5.54833379	         58.96516782	         74.42871741	        -18.71320701	
          2.11400000	        -26.66327596	          4.68140837	          9.98145805	         -4.54016780	         56.17042183	         -5.57594665	         58.83692772	         74.60581516	        -18.59013899	
          2.12000000	        -26.76136288	          4.69832414	          9.98672176	         -4.54266377	         56.38896393	         -5.60328895	         58.70917060	         74.78204849	        -18.46908822	
          2.12600000	        -26.85936338	          4.71514797	          9.99059939	         -4.54488024	         56.60557594	         -5.63039678	         58.58189119	         74.95741184	        -18.35009045	
          2.13200000	        -26.95727140	          4.73196951	          9.99312589	         -4.54676352	         56.82031633	         -5.65730713	         58.45507737	         75.13190544	        -18.23312840	
          2.13800000	        -27.05508924	          4.74887762	          9.99433061	         -4.54826114	         57.03325404	         -5.68405782	         58.32870972	         75.30553515	        -18.11813522	
          2.14400000	        -27.15282642	          4.76596069	          9.99423788	         -4.54932136	         57.24446685	         -5.71068740	         58.20276115	         75.47831226	        -18.00499920	
          2.15000000	        -27.25049843	          4.78330689	          9.99286777	         -4.54989283	         57.45403975	         -5.73723500	         58.07719662	         75.65025312	        -17.89356926	
          2.15600000	        -27.34812544	          4.80100437	          9.99023688	         -4.54992436	         57.66206322	         -5.76374018	         57.95197276	         75.82137877	        -17.78366119	
          2.16200000	        -27.44573108	          4.81914113	          9.98635918	         -4.54936473	         57.86863153	         -5.79024262	         57.82703786	         75.99171442	        -17.67506434	
          2.16800000	        -27.54334109	          4.83780493	          9.98124685	         -4.54816270	         58.07384107	         -5.81678192	         57.70233179	         76.16128889	        -17.56754851	
          2.17400000	        -27.64098226	          4.85708295	          9.97491107	         -4.54626708	         58.27778880	         -5.84339727	         57.57778636	         76.33013404	        -17.46087093	
          2.18000000	        -27.73868135	          4.87706133	          9.96736264	         -4.54362695	         58.48057068	         -5.87012710	         57.45332577	         76.49828417	        -17.35478291	
          2.18600000	        -27.83646422	          4.89782466	          9.95861250	         -4.54019194	         58.68228030	         -5.89700881	         57.32886739	         76.66577539	        -17.24903627	
          2.19200000	        -27.93435507	          4.91945533	          9.94867208	         -4.53591262	         58.88300760	         -5.92407842	         57.20432279	         76.83264498	        -17.14338914	
          2.19800000	        -28.03237597	          4.94203284	          9.93755341	         -4.53074093	         59.08283774	         -5.95137024	         57.07959905	         76.99893079	        -17.03761113	
          2.20400000	        -28.13054649	          4.96563309	          9.92526904	         -4.52463069	         59.28185010	         -5.97891666	         56.95460026	         77.16467064	        -16.93148783	
          2.21000000	        -28.22888356	          4.99032761	          9.91183173	         -4.51753813	         59.48011742	         -6.00674782	         56.82922928	         77.32990174	        -16.82482437	
          2.21600000	        -28.32740149	          5.01618286	          9.89725397	         -4.50942239	         59.67770511	         -6.03489148	         56.70338955	         77.49466015	        -16.71744823	
          2.22200000	        -28.42611220	          5.04325942	          9.88154731	         -4.50024614	         59.87467066	         -6.06337279	         56.57698710	         77.65898027	        -16.60921115	
          2.22800000	        -28.52502549	          5.07161132	          9.86472154	         -4.48997613	         60.07106321	         -6.09221419	         56.44993253	         77.82289428	        -16.49999023	
          2.23400000	        -28.62414956	          5.10128531	          9.84678377	         -4.47858371	         60.26692317	         -6.12143532	         56.32214293	         77.98643176	        -16.38968819	
          2.24000000	        -28.72349147	          5.13232024	          9.82773744	         -4.46604541	         60.46228206	         -6.15105295	         56.19354374	         78.14961912	        -16.27823301	
          2.24600000	        -28.82305774	          5.16474641	          9.80758142	         -4.45234343	         60.65716237	         -6.18108097	         56.06407043	         78.31247914	        -16.16557681	
          2.25200000	        -28.92285488	          5.19858503	          9.78630907	         -4.43746612	         60.85157753	         -6.21153041	         55.93366998	         78.47503053	        -16.05169443	
          2.25800000	        -29.02288995	          5.23384773	          9.76390749	         -4.42140839	         61.04553199	         -6.24240947	         55.80230199	         78.63728735	        -15.93658147	
          2.26400000	        -29.12317098	          5.27053617	          9.74035693	         -4.40417209	         61.23902136	         -6.27372355	         55.66993962	         78.79925852	        -15.82025224	
          2.27000000	        -29.22370734	          5.30864172	          9.71563046	         -4.38576626	         61.43203267	         -6.30547536	         55.53657010	         78.96094725	        -15.70273761	
          2.27600000	        -29.32450995	          5.34814529	          9.68969389	         -4.36620734	         61.62454469	         -6.33766498	         55.40219494	         79.12235049	        -15.58408287	
